<svg width="72" height="72" viewBox="0 0 72 72" fill="none" xmlns="http://www.w3.org/2000/svg">
<circle cx="36" cy="36" r="35" fill="#F2F6EB" stroke="#6B7773" stroke-width="2" stroke-dasharray="10 10"/>
<path d="M32.6875 30.1016C32.6875 29.75 32.9219 29.4766 33.4688 29.2422C34.0156 29.0469 34.5625 28.9297 35.1875 28.9297C35.7734 28.9297 36.3203 29.0469 36.7891 29.2422C37.2578 29.4375 37.5312 29.7109 37.5312 30.1016V34.0078C38 34.0078 38.4297 33.9688 38.8984 33.9297C39.3672 33.9297 39.7578 33.8906 40.1484 33.8125C40.3828 33.8125 40.6172 33.8516 40.8516 33.9688C41.0469 34.0859 41.2031 34.2422 41.3594 34.4375C41.5156 34.6328 41.6328 34.8672 41.7109 35.1016C41.7891 35.3359 41.8281 35.6094 41.8281 35.8438C41.8281 36.3906 41.6719 36.8594 41.3984 37.25C41.125 37.6406 40.7344 37.8359 40.1875 37.8359C39.6797 37.8359 39.25 37.8359 38.9375 37.8359C38.5859 37.8359 38.1172 37.8359 37.5312 37.8359C37.5312 38.6953 37.5703 39.5156 37.5703 40.2578C37.5703 41 37.6094 41.625 37.6875 42.1328C37.6875 42.5234 37.4141 42.8359 36.9062 43.0703C36.3984 43.3047 35.8516 43.3828 35.2656 43.3828C34.6406 43.3828 34.0938 43.3047 33.625 43.0703C33.1172 42.875 32.8828 42.5625 32.8828 42.1328V40.2969C32.8828 39.6328 32.8438 38.8516 32.8438 37.9531L30.1094 38.0312C29.5625 38.0312 29.1328 37.8359 28.8203 37.4062C28.5078 36.9766 28.3516 36.5078 28.3516 35.9609C28.3516 35.5312 28.4688 35.1016 28.7812 34.7109C29.0547 34.3203 29.4844 34.125 30.1094 34.125C30.5391 34.125 30.9297 34.1641 31.3203 34.1641C31.6719 34.1641 32.1797 34.1641 32.8047 34.125L32.6875 30.1016Z" fill="#6B7773"/>
</svg>
