<svg width="40" height="40" viewBox="0 0 40 40" fill="none" xmlns="http://www.w3.org/2000/svg">
<path d="M8.33325 32.5003V10.3337C8.33325 8.46682 8.33325 7.5327 8.69656 6.81966C9.01614 6.19245 9.52571 5.68289 10.1529 5.36331C10.866 5 11.8001 5 13.6669 5H29.0002C29.9337 5 30.401 5 30.7575 5.18166C31.0712 5.34144 31.3245 5.59623 31.4843 5.90983C31.666 6.26635 31.6666 6.73341 31.6666 7.66683V27.3335C31.6666 28.2669 31.666 28.733 31.4843 29.0895C31.3245 29.4031 31.0715 29.6587 30.7579 29.8185C30.4017 30 29.9349 30 29.0033 30H12.0833C10.0122 30 8.33325 31.6789 8.33325 33.75C8.33325 34.4404 8.8929 35 9.58325 35H27.3366C28.2682 35 28.735 35 29.0912 34.8185C29.4048 34.6587 29.6578 34.4033 29.8176 34.0897C29.9993 33.7331 29.9999 33.2668 29.9999 32.3333V30" stroke="#E5F2D7" stroke-width="2" stroke-linecap="round" stroke-linejoin="round"/>
</svg>
