<svg width="40" height="40" viewBox="0 0 40 40" fill="none" xmlns="http://www.w3.org/2000/svg">
<path d="M33.9166 14.8715L33.3062 14.532C33.2114 14.4793 33.1648 14.4528 33.119 14.4254C32.6639 14.1528 32.2803 13.7761 32.0003 13.3254C31.9721 13.28 31.9456 13.2325 31.8913 13.1385C31.8371 13.0446 31.8096 12.9971 31.7844 12.95C31.5333 12.4811 31.3975 11.9586 31.3893 11.4268C31.3885 11.3733 31.3887 11.3187 31.3905 11.2101L31.4024 10.5013C31.4215 9.36709 31.4311 8.79823 31.2717 8.2877C31.1301 7.83422 30.8933 7.41654 30.577 7.06209C30.2194 6.66142 29.7246 6.37557 28.7337 5.80461L27.9107 5.33034C26.9226 4.76097 26.4284 4.47618 25.9039 4.36761C25.4398 4.27156 24.9609 4.27601 24.4985 4.37982C23.9766 4.49698 23.4886 4.78919 22.5131 5.37326L22.5076 5.37591L21.9179 5.72901C21.8246 5.78485 21.7774 5.81299 21.7307 5.83897C21.2669 6.09684 20.7491 6.23942 20.2187 6.25645C20.1653 6.25816 20.1109 6.25816 20.0022 6.25816C19.8941 6.25816 19.8374 6.25816 19.7841 6.25645C19.2525 6.23935 18.7337 6.09599 18.2692 5.83706C18.2224 5.81096 18.1761 5.7826 18.0826 5.7265L17.4892 5.37022C16.507 4.78061 16.0152 4.48536 15.4905 4.36761C15.0262 4.26344 14.5456 4.26056 14.0798 4.35785C13.5539 4.46769 13.0596 4.75459 12.071 5.32839L12.0666 5.33034L11.2538 5.80206L11.2448 5.80757C10.2651 6.37619 9.77402 6.66119 9.41949 7.06023C9.10489 7.41433 8.86974 7.83135 8.72899 8.28363C8.5699 8.79485 8.57838 9.36494 8.59755 10.5045L8.60946 11.2123C8.61127 11.3194 8.61439 11.3727 8.61361 11.4254C8.60572 11.9583 8.4681 12.4819 8.21624 12.9516C8.19133 12.998 8.1645 13.0445 8.1109 13.1373C8.05726 13.2301 8.03129 13.2763 8.00348 13.3211C7.72227 13.7742 7.3369 14.1531 6.87889 14.4262C6.83358 14.4532 6.78584 14.4792 6.69202 14.5312L6.08942 14.8651C5.0868 15.4207 4.58562 15.6988 4.22093 16.0945C3.89831 16.4445 3.65459 16.8597 3.50582 17.3119C3.33765 17.8231 3.33779 18.3963 3.34039 19.5426L3.34252 20.4795C3.34511 21.6181 3.34865 22.187 3.5172 22.6947C3.66631 23.1439 3.90825 23.5566 4.22906 23.9046C4.59169 24.2978 5.0879 24.5742 6.08291 25.1277L6.68014 25.46C6.78178 25.5165 6.83293 25.5444 6.88194 25.5739C7.3358 25.8472 7.71815 26.2251 7.99697 26.6756C8.02709 26.7242 8.05601 26.7747 8.11383 26.8758C8.17093 26.9755 8.20015 27.0254 8.22656 27.0754C8.47101 27.5382 8.6019 28.0525 8.61082 28.5758C8.61179 28.6323 8.61096 28.6895 8.60902 28.8045L8.59755 29.4837C8.57825 30.6271 8.56984 31.1995 8.72987 31.7122C8.87144 32.1657 9.10807 32.5833 9.42438 32.9378C9.78192 33.3385 10.2776 33.6241 11.2685 34.1951L12.0913 34.6693C13.0794 35.2386 13.5732 35.5231 14.0978 35.6316C14.5619 35.7277 15.0411 35.724 15.5035 35.6202C16.0261 35.5028 16.5158 35.2096 17.494 34.6239L18.0837 34.2708C18.177 34.2149 18.2243 34.1869 18.271 34.1609C18.7348 33.903 19.2521 33.7597 19.7825 33.7427C19.8359 33.741 19.8903 33.741 19.999 33.741C20.108 33.741 20.1623 33.741 20.2159 33.7427C20.7474 33.7598 21.2678 33.9036 21.7323 34.1625C21.7732 34.1853 21.8141 34.2099 21.886 34.2531L22.513 34.6295C23.4952 35.2192 23.986 35.5136 24.5108 35.6313C24.9751 35.7355 25.456 35.7397 25.9218 35.6424C26.4475 35.5326 26.9429 35.2451 27.9309 34.6717L28.7559 34.1929C29.7363 33.6239 30.2279 33.3386 30.5825 32.9394C30.8971 32.5853 31.1326 32.1685 31.2733 31.7162C31.4313 31.2087 31.4218 30.643 31.4028 29.5199L31.3905 28.7874C31.3887 28.6802 31.3885 28.6269 31.3893 28.5742C31.3972 28.0413 31.5325 27.5173 31.7844 27.0476C31.8093 27.0012 31.8363 26.9544 31.8897 26.8619C31.9434 26.7691 31.9711 26.7228 31.9989 26.678C32.2801 26.2249 32.6659 25.8457 33.1239 25.5726C33.1687 25.5459 33.2148 25.5204 33.3063 25.4696L33.3095 25.4682L33.9121 25.1342C34.9147 24.5786 35.4168 24.3003 35.7815 23.9046C36.1042 23.5545 36.3475 23.1399 36.4963 22.6877C36.6635 22.1795 36.6622 21.6097 36.6596 20.4768L36.6575 19.5198C36.6549 18.3812 36.6535 17.8123 36.4849 17.3046C36.3358 16.8555 36.0925 16.4427 35.7717 16.0947C35.4094 15.7018 34.9125 15.4254 33.9195 14.873L33.9166 14.8715Z" stroke="#D8E5CD" stroke-width="2" stroke-linecap="round" stroke-linejoin="round"/>
<path d="M13.3339 19.9999C13.3339 23.6818 16.3187 26.6666 20.0005 26.6666C23.6824 26.6666 26.6672 23.6818 26.6672 19.9999C26.6672 16.318 23.6824 13.3333 20.0005 13.3333C16.3187 13.3333 13.3339 16.318 13.3339 19.9999Z" stroke="#D8E5CD" stroke-width="2" stroke-linecap="round" stroke-linejoin="round"/>
</svg>
